<?xml version="1.0" encoding="UTF-8" standalone="no"?>
<svg
   id="Layer_1"
   viewBox="0 0 2000 600"
   version="1.1"
   sodipodi:docname="logo-name.svg"
   inkscape:version="1.3.2 (091e20ef0f, 2023-11-25)"
   xmlns:inkscape="http://www.inkscape.org/namespaces/inkscape"
   xmlns:sodipodi="http://sodipodi.sourceforge.net/DTD/sodipodi-0.dtd"
   xmlns="http://www.w3.org/2000/svg"
   xmlns:svg="http://www.w3.org/2000/svg">
  <sodipodi:namedview
     id="namedview6"
     pagecolor="#ffffff"
     bordercolor="#000000"
     borderopacity="0.25"
     inkscape:showpageshadow="2"
     inkscape:pageopacity="0.0"
     inkscape:pagecheckerboard="0"
     inkscape:deskcolor="#d1d1d1"
     inkscape:zoom="0.405"
     inkscape:cx="776.54321"
     inkscape:cy="298.76543"
     inkscape:window-width="1366"
     inkscape:window-height="712"
     inkscape:window-x="0"
     inkscape:window-y="0"
     inkscape:window-maximized="1"
     inkscape:current-layer="Layer_1" />
  <defs
     id="defs1">
    <style
       id="style1">.cls-1{fill:#ff4500;stroke-width:0px;}</style>
  </defs>
  <path
     class="cls-1"
     d="m 646.42928,205.74673 -35.33582,84.0204 c -4.45475,-2.22351 -15.02219,-4.73366 -25.03955,-4.73366 -10.01737,0 -20.03474,2.50241 -29.76546,7.23606 -19.19801,9.73846 -33.39122,29.21539 -33.39122,57.31516 V 503.44 H 434.9799 V 204.08105 h 85.41492 v 42.01407 h 1.66569 c 20.03473,-26.71298 50.63691,-46.46107 90.41973,-46.46107 14.46436,0 28.37867,2.78131 33.94129,6.12043 z"
     id="path1"
     style="fill:#ff7f2a" />
  <path
     class="cls-1"
     d="m 629.41602,354.59725 c 0,-86.53055 59.25975,-154.97095 148.01379,-154.97095 80.41011,0 137.99642,58.70194 137.99642,141.33554 0,14.46437 -1.39452,28.09977 -4.44699,41.17736 H 709.54723 c 9.18065,31.43888 36.4437,55.92062 77.34214,55.92062 22.53714,0 54.53384,-8.07277 71.77952,-21.42152 l 27.2708,65.65909 c -25.31845,17.25343 -63.9934,25.59736 -97.93469,25.59736 -94.87448,0 -158.58898,-61.21209 -158.58898,-153.2975 z m 78.45777,-27.54971 h 126.59227 c 0,-38.39604 -26.15517,-58.70193 -58.15187,-58.70193 -36.1648,0 -60.65428,23.37385 -68.4404,58.70193 z"
     id="path2"
     style="fill:#ff7f2a" />
  <path
     class="cls-1"
     d="m 1669.882,69.570949 c 29.4944,0 53.6972,24.202831 53.6972,53.697121 0,29.4943 -24.2028,53.69713 -53.6972,53.69713 -29.4942,0 -53.697,-24.20283 -53.697,-53.69713 0,-29.49429 24.2028,-53.697121 53.697,-53.697121 z m 43.9587,433.876801 h -87.9173 v -299.3667 h 87.9173 z"
     id="path3"
     style="fill:#ff7f2a" />
  <path
     class="cls-1"
     d="m 1159.3992,74.986371 -0.279,157.473349 h -1.6656 c -24.2029,-23.09496 -50.358,-32.55451 -84.5782,-32.55451 -84.2994,0 -140.21998,67.88259 -140.21998,153.85532 0,85.97273 52.30258,154.13422 137.43858,154.13422 35.6148,0 69.2771,-12.24087 90.9776,-40.06173 h 2.5024 v 35.61473 h 83.7415 V 74.986371 Z m 4.1835,357.092469 h -2.9052 l -19.6165,-20.39111 c -12.7676,12.74445 -30.2535,20.39111 -50.6523,20.39111 -43.0677,0 -73.1818,-34.0575 -73.1818,-78.24859 0,-44.19108 30.1141,-78.24859 73.1818,-78.24859 43.0677,0 73.1818,34.05751 73.1818,78.24859 v 78.24859 z"
     id="path4"
     style="fill:#ff7f2a" />
  <path
     class="cls-1"
     d="m 1495.1863,74.978624 -0.2789,157.473346 h -1.6657 c -24.2028,-23.09495 -50.358,-32.55451 -84.5782,-32.55451 -84.2993,0 -140.2199,67.88259 -140.2199,153.85532 0,85.97273 52.3026,154.13423 137.4386,154.13423 35.6147,0 69.2771,-12.24087 90.9775,-40.06173 h 2.5024 V 503.44 h 83.7415 V 74.978624 Z m 3.7652,357.092476 h -2.9052 l -19.6164,-20.39112 c -12.7677,12.74444 -30.2536,20.39112 -50.6524,20.39112 -43.0677,0 -73.1818,-34.05751 -73.1818,-78.2486 0,-44.19107 30.1141,-78.24858 73.1818,-78.24858 43.0677,0 73.1818,34.05751 73.1818,78.24858 v 78.2486 z"
     id="path5"
     style="fill:#ff7f2a" />
  <path
     class="cls-1"
     d="m 1884.3452,204.08105 h 64.2723 v 74.83974 h -64.2723 v 224.52696 h -87.9173 V 278.92079 h -63.9934 v -74.83974 h 63.9934 v -81.37853 h 87.9173 z"
     id="path6"
     style="fill:#ff7f2a" />
  <path
     class="cls-1"
     d="m 166.01058,68.073919 0.2789,157.473351 h 1.6657 c 24.20282,-23.09496 50.358,-32.55451 84.57819,-32.55451 84.2993,0 140.21993,67.88259 140.21993,153.85532 0,85.97272 -52.3026,154.13422 -137.43862,154.13422 -35.61473,0 -69.27711,-12.24087 -90.97753,-40.06173 h -2.50241 V 496.5353 H 78.093254 V 68.073919 Z m -4.18359,357.092471 h 2.90527 l 19.61637,-20.39112 c 12.7677,12.74445 30.25355,20.39112 50.65241,20.39112 43.06771,0 73.1818,-34.05751 73.1818,-78.24859 0,-44.19108 -30.11409,-78.24859 -73.1818,-78.24859 -43.06772,0 -73.18179,34.05751 -73.18179,78.24859 v 78.24859 z"
     id="path7"
     style="fill:#ff7f2a" />
</svg>
