<?xml version="1.0" encoding="UTF-8" standalone="no"?>
<svg
   id="Layer_1"
   viewBox="0 0 2000 600"
   version="1.1"
   sodipodi:docname="logo-name.svg"
   inkscape:version="1.3.2 (091e20ef0f, 2023-11-25)"
   xmlns:inkscape="http://www.inkscape.org/namespaces/inkscape"
   xmlns:sodipodi="http://sodipodi.sourceforge.net/DTD/sodipodi-0.dtd"
   xmlns="http://www.w3.org/2000/svg"
   xmlns:svg="http://www.w3.org/2000/svg">
  <sodipodi:namedview
     id="namedview6"
     pagecolor="#ffffff"
     bordercolor="#000000"
     borderopacity="0.25"
     inkscape:showpageshadow="2"
     inkscape:pageopacity="0.0"
     inkscape:pagecheckerboard="0"
     inkscape:deskcolor="#d1d1d1"
     inkscape:zoom="0.405"
     inkscape:cx="1069.1358"
     inkscape:cy="298.76543"
     inkscape:window-width="1366"
     inkscape:window-height="712"
     inkscape:window-x="0"
     inkscape:window-y="0"
     inkscape:window-maximized="1"
     inkscape:current-layer="Layer_1" />
  <defs
     id="defs1">
    <style
       id="style1">.cls-1{fill:#ff4500;stroke-width:0px;}</style>
  </defs>
  <path
     class="cls-1"
     d="m 621.63996,222.31971 -36.00046,85.60071 c -4.53852,-2.26533 -15.30472,-4.8227 -25.51051,-4.8227 -10.20577,0 -20.41156,2.54949 -30.3253,7.37217 -19.5591,9.92163 -34.01927,29.7649 -34.01927,58.39318 v 156.74912 h -89.57094 v -304.9895 h 87.02147 V 263.427 h 1.69702 c 20.41156,-27.21542 51.58933,-47.33494 92.12042,-47.33494 14.7364,0 28.91243,2.83362 34.57967,6.23555 z"
     id="path1"
     style="fill:#009c00;fill-opacity:1" />
  <path
     class="cls-1"
     d="m 604.3067,373.96991 c 0,-88.15809 60.37435,-157.88574 150.79773,-157.88574 81.92253,0 140.59196,59.80604 140.59196,143.99387 0,14.73642 -1.42075,28.62829 -4.53063,41.95185 H 685.94508 c 9.35331,32.03021 37.12915,56.97241 78.79685,56.97241 22.96102,0 55.55954,-8.22461 73.12959,-21.82443 l 27.78373,66.89406 c -25.79466,17.57794 -65.19704,26.07881 -99.77672,26.07881 -96.65895,0 -161.57183,-62.36342 -161.57183,-156.18083 z m 79.93345,-28.06788 h 128.97331 c 0,-39.11822 -26.6471,-59.80604 -59.24563,-59.80604 -36.84501,0 -61.79511,23.81349 -69.72768,59.80604 z"
     id="path2"
     style="fill:#009c00;fill-opacity:1" />
  <path
     class="cls-1"
     d="m 1672.9944,87.494539 c 30.0491,0 54.7072,24.658061 54.7072,54.707091 0,30.04905 -24.6581,54.70711 -54.7072,54.70711 -30.0489,0 -54.7069,-24.65806 -54.7069,-54.70711 0,-30.04903 24.658,-54.707091 54.7069,-54.707091 z m 44.7855,442.037451 h -89.571 V 224.5346 h 89.571 z"
     id="path3"
     style="fill:#009c00;fill-opacity:1" />
  <path
     class="cls-1"
     d="m 1249.6334,534.75868 -111.9888,-40.80922 h -1.6598 c -24.1175,23.01379 -50.1808,32.44015 -84.2808,32.44015 -84.00307,0 -139.72717,-67.64408 -139.72717,-153.31463 0,-85.67057 52.1187,-153.59261 136.95557,-153.59261 35.4897,0 69.0337,12.19793 90.6578,39.92094 h 2.4935 v -35.48956 h 83.4472 l -10.8736,219.5881 z M 1142.0915,295.03193 h -2.8952 l -19.5474,20.31946 c -12.7226,-12.69973 -30.1471,-20.31946 -50.4742,-20.31946 -42.9163,0 -72.92467,33.9378 -72.92467,77.97359 0,44.03578 30.00837,77.97356 72.92467,77.97356 42.9163,0 72.9244,-33.93778 72.9244,-77.97356 v -77.97359 z"
     id="path4-6-5"
     style="fill:#009c00;stroke-width:0px;fill-opacity:1"
     sodipodi:nodetypes="cccssscccccccccsssscc" />
  <path
     class="cls-1"
     d="m 1497.2551,95.572653 -0.2841,160.435217 h -1.6972 c -24.6578,-23.52934 -51.305,-33.16682 -86.1689,-33.16682 -85.8849,0 -142.8572,69.15938 -142.8572,156.74913 0,87.58978 53.2863,157.03331 140.0235,157.03331 36.2846,0 70.5802,-12.4711 92.6888,-40.81524 h 2.5495 v 36.28458 h 85.3165 V 95.572653 Z m 3.836,363.808927 h -2.9599 l -19.9852,-20.77466 c -13.0079,12.98415 -30.8227,20.77466 -51.6052,20.77466 -43.8778,0 -74.5582,-34.69809 -74.5582,-79.72036 0,-45.02225 30.6804,-79.72033 74.5582,-79.72033 43.8778,0 74.5582,34.69808 74.5582,79.72033 v 79.72036 z"
     id="path5"
     style="fill:#009c00;fill-opacity:1" />
  <path
     class="cls-1"
     d="m 1891.4914,224.5346 h 65.4811 v 76.24738 h -65.4811 v 228.75001 h -89.5709 V 300.78198 h -65.1971 V 224.5346 h 65.1971 v -82.90915 h 89.5709 z"
     id="path6"
     style="fill:#009c00;fill-opacity:1" />
  <path
     class="cls-1"
     d="m 132.18521,82.057449 0.28413,160.435231 h 1.69704 c 24.65803,-23.52935 51.30517,-33.16684 86.169,-33.16684 85.88485,0 142.85727,69.15938 142.85727,156.74915 0,87.58975 -53.28634,157.03329 -140.02365,157.03329 -36.2846,0 -70.58013,-12.4711 -92.68871,-40.81524 h -2.54947 v 36.28459 H 42.614271 V 82.057449 Z m -4.26228,363.808921 h 2.9599 l 19.98533,-20.77466 c 13.00785,12.98416 30.82258,20.77466 51.60512,20.77466 43.87776,0 74.55826,-34.69809 74.55826,-79.72036 0,-45.02224 -30.6805,-79.72033 -74.55826,-79.72033 -43.87777,0 -74.55824,34.69809 -74.55824,79.72033 v 79.72036 z"
     id="path7"
     style="fill:#009c00;fill-opacity:1" />
</svg>
